<svg width="30" height="24" viewBox="0 0 30 24" fill="none" xmlns="http://www.w3.org/2000/svg">
<path d="M16.0112 4.17594C16.0673 3.39989 16.3236 2.65163 16.7551 2.00419C17.1866 1.35676 17.7787 0.832277 18.4734 0.481948C19.1682 0.131618 19.9419 -0.0325891 20.719 0.00535493C21.4962 0.043299 22.2502 0.282098 22.9075 0.698441C22.9827 0.747612 23.0432 0.816115 23.0827 0.896755C23.1222 0.977394 23.1393 1.06719 23.1322 1.15671C23.125 1.24623 23.0938 1.33218 23.042 1.4055C22.9902 1.47883 22.9195 1.53684 22.8375 1.57344C21.6949 2.08753 20.7249 2.92056 20.0442 3.97248C19.3634 5.0244 19.0009 6.25047 19 7.50344C19 7.64969 19 7.79594 19.015 7.93969C19.0219 8.03055 19.0038 8.12156 18.9627 8.2029C18.9217 8.28424 18.8591 8.3528 18.7819 8.40119C18.7047 8.44958 18.6158 8.47594 18.5247 8.47744C18.4335 8.47894 18.3438 8.45551 18.265 8.40969C17.5283 7.98832 16.9258 7.36723 16.5271 6.6181C16.1283 5.86897 15.9495 5.02235 16.0112 4.17594ZM30 17.0797C30.0018 17.6511 29.8435 18.2116 29.543 18.6976C29.2426 19.1837 28.8119 19.5759 28.3 19.8297L28.245 19.8547L23.3913 21.9222C23.3433 21.9433 23.2935 21.9601 23.2425 21.9722L15.2425 23.9722C15.1633 23.9926 15.0818 24.0031 15 24.0034H2C1.46957 24.0034 0.960859 23.7927 0.585786 23.4177C0.210714 23.0426 0 22.5339 0 22.0034V17.0034C0 16.473 0.210714 15.9643 0.585786 15.5892C0.960859 15.2142 1.46957 15.0034 2 15.0034H5.58625L8.41375 12.1747C8.78451 11.8023 9.22539 11.507 9.71092 11.306C10.1964 11.105 10.717 11.0021 11.2425 11.0034H17.5C18.0282 11.0034 18.5496 11.1229 19.0251 11.353C19.5005 11.5831 19.9177 11.9178 20.2454 12.3321C20.5731 12.7464 20.8028 13.2295 20.9172 13.7451C21.0317 14.2608 21.0279 14.7957 20.9062 15.3097L26.1362 14.1072C26.5915 13.9866 27.0685 13.9722 27.5302 14.0651C27.992 14.1579 28.4262 14.3556 28.7995 14.6427C29.1728 14.9299 29.4752 15.299 29.6833 15.7215C29.8915 16.144 29.9998 16.6087 30 17.0797ZM28 17.0797C27.9998 16.9143 27.9616 16.7513 27.8882 16.6031C27.8148 16.4549 27.7083 16.3257 27.5769 16.2253C27.4455 16.125 27.2927 16.0562 27.1305 16.0245C26.9682 15.9927 26.8008 15.9988 26.6413 16.0422L26.6025 16.0522L18.2275 17.9784C18.154 17.9948 18.079 18.0032 18.0037 18.0034H14C13.7348 18.0034 13.4804 17.8981 13.2929 17.7105C13.1054 17.523 13 17.2687 13 17.0034C13 16.7382 13.1054 16.4839 13.2929 16.2963C13.4804 16.1088 13.7348 16.0034 14 16.0034H17.5C17.8978 16.0034 18.2794 15.8454 18.5607 15.5641C18.842 15.2828 19 14.9013 19 14.5034C19 14.1056 18.842 13.7241 18.5607 13.4428C18.2794 13.1615 17.8978 13.0034 17.5 13.0034H11.2425C10.9798 13.0026 10.7195 13.054 10.4768 13.1546C10.2341 13.2553 10.0138 13.4032 9.82875 13.5897L7 16.4172V22.0034H14.875L22.6787 20.0522L27.4287 18.0297C27.6016 17.9386 27.7463 17.8019 27.847 17.6344C27.9477 17.467 28.0006 17.2751 28 17.0797ZM21 7.50344C21 8.39346 21.2639 9.26349 21.7584 10.0035C22.2529 10.7435 22.9557 11.3203 23.7779 11.6609C24.6002 12.0015 25.505 12.0906 26.3779 11.917C27.2508 11.7433 28.0526 11.3148 28.682 10.6854C29.3113 10.0561 29.7399 9.25426 29.9135 8.38135C30.0872 7.50843 29.9981 6.60363 29.6575 5.78137C29.3169 4.9591 28.7401 4.25629 28.0001 3.76183C27.26 3.26736 26.39 3.00344 25.5 3.00344C24.3065 3.00344 23.1619 3.47755 22.318 4.32146C21.4741 5.16537 21 6.30997 21 7.50344Z" fill="white"/>
</svg>
