<svg width="17" height="15" viewBox="0 0 17 15" fill="none" xmlns="http://www.w3.org/2000/svg">
<path d="M5.77637 11.1221L8.50204 14.0117L11.2277 11.1221" stroke="white" stroke-linecap="round" stroke-linejoin="round"/>
<path d="M8.50098 7.51074V14.0123" stroke="white" stroke-linecap="round" stroke-linejoin="round"/>
<path d="M14.5527 11.9094C15.1451 11.4678 15.5894 10.8375 15.821 10.11C16.0527 9.38256 16.0596 8.59578 15.8409 7.86385C15.6221 7.13192 15.1891 6.49293 14.6046 6.0396C14.02 5.58628 13.3145 5.34221 12.5902 5.34281H11.7317C11.5267 4.49606 11.1432 3.70964 10.6101 3.04275C10.077 2.37585 9.40811 1.84586 8.65382 1.49268C7.89953 1.13949 7.07949 0.972317 6.25544 1.00373C5.43139 1.03515 4.6248 1.26434 3.89639 1.67405C3.16798 2.08377 2.53673 2.66332 2.05017 3.36909C1.56361 4.07486 1.23442 4.88845 1.08738 5.74861C0.940332 6.60877 0.979269 7.49309 1.20125 8.33499C1.42324 9.17689 1.82249 9.95444 2.36895 10.6091" stroke="white" stroke-linecap="round" stroke-linejoin="round"/>
</svg>
