<svg width="28" height="25" viewBox="0 0 28 25" fill="none" xmlns="http://www.w3.org/2000/svg">
<path d="M2.25994 3.59661C2.1298 3.45991 2.044 3.2901 2.01296 3.10778C1.98191 2.92547 2.00694 2.73847 2.08502 2.56946C2.16309 2.40045 2.29086 2.25669 2.45283 2.15561C2.6148 2.05453 2.80401 2.00048 2.99752 2H25C25.1937 2.00002 25.3833 2.05374 25.5456 2.15464C25.7079 2.25554 25.8361 2.39927 25.9145 2.56837C25.9929 2.73747 26.0181 2.92466 25.9871 3.1072C25.9562 3.28973 25.8703 3.45976 25.7401 3.59661L16.9991 12.5009V19.4995C16.9992 19.6567 16.9586 19.8115 16.881 19.9501C16.8033 20.0888 16.691 20.207 16.554 20.2942L12.5536 22.8395C12.4031 22.9353 12.2282 22.9904 12.0475 22.9989C11.8669 23.0073 11.6872 22.9688 11.5276 22.8875C11.368 22.8062 11.2345 22.6851 11.1413 22.5371C11.0481 22.3892 10.9987 22.2198 10.9984 22.0471V12.5009L2.25994 3.59661Z" stroke="black" stroke-width="3" stroke-linecap="round" stroke-linejoin="round"/>
</svg>
