<svg width="40" height="24" viewBox="0 0 40 24" fill="none" xmlns="http://www.w3.org/2000/svg">
  <path
    d="M23.3339 23C23.3339 23.2652 23.5095 23.5196 23.822 23.7071C24.1346 23.8946 24.5585 24 25.0005 24H38.3334C38.7754 24 39.1993 23.8946 39.5119 23.7071C39.8244 23.5196 40 23.2652 40 23V1C40 0.734784 39.8244 0.48043 39.5119 0.292893C39.1993 0.105357 38.7754 0 38.3334 0H25.0005C24.5585 0 24.1346 0.105357 23.822 0.292893C23.5095 0.48043 23.3339 0.734784 23.3339 1C23.3339 1.26522 23.5095 1.51957 23.822 1.70711C24.1346 1.89464 24.5585 2 25.0005 2H36.6668V22H25.0005C24.5585 22 24.1346 22.1054 23.822 22.2929C23.5095 22.4804 23.3339 22.7348 23.3339 23ZM0.488792 11.2925L8.82185 6.2925C9.05494 6.15249 9.35202 6.05712 9.67548 6.01847C9.99895 5.97982 10.3342 5.99963 10.6389 6.07538C10.9436 6.15113 11.204 6.27942 11.3871 6.44402C11.5702 6.60861 11.6679 6.8021 11.6676 7V11H25.0005C25.4425 11 25.8664 11.1054 26.179 11.2929C26.4915 11.4804 26.6671 11.7348 26.6671 12C26.6671 12.2652 26.4915 12.5196 26.179 12.7071C25.8664 12.8946 25.4425 13 25.0005 13H11.6676V17C11.6679 17.1979 11.5702 17.3914 11.3871 17.556C11.204 17.7206 10.9436 17.8489 10.6389 17.9246C10.3342 18.0004 9.99895 18.0202 9.67548 17.9815C9.35202 17.9429 9.05494 17.8475 8.82185 17.7075L0.488792 12.7075C0.333836 12.6146 0.210907 12.5043 0.127037 12.3829C0.0431671 12.2615 0 12.1314 0 12C0 11.8686 0.0431671 11.7385 0.127037 11.6171C0.210907 11.4957 0.333836 11.3854 0.488792 11.2925Z"
    fill="#FE0000" />
</svg>