<svg width="29" height="25" viewBox="0 0 29 25" fill="none" xmlns="http://www.w3.org/2000/svg">
<path d="M28.7471 4.96129C28.6463 4.85729 28.5202 4.77364 28.3778 4.71625C28.2353 4.65886 28.08 4.62912 27.9228 4.62915H6.26653L5.45032 0.760337C5.40536 0.547012 5.27498 0.354055 5.08191 0.215106C4.88884 0.0761573 4.64532 3.13361e-05 4.39382 0H1.07395C0.789124 0 0.51596 0.0975424 0.314554 0.271169C0.113148 0.444796 0 0.680284 0 0.925829C0 1.17137 0.113148 1.40686 0.314554 1.58049C0.51596 1.75412 0.789124 1.85166 1.07395 1.85166H3.49035L6.92164 18.0872C7.02271 18.5687 7.26955 19.0187 7.63716 19.3915C7.12978 19.8 6.76357 20.3217 6.57913 20.8988C6.39468 21.4758 6.39922 22.0855 6.59224 22.6605C6.78526 23.2354 7.15921 23.753 7.67264 24.1559C8.18606 24.5588 8.81889 24.8312 9.50095 24.943C10.183 25.0548 10.8877 25.0015 11.5368 24.7891C12.1859 24.5767 12.754 24.2135 13.1783 23.7397C13.6025 23.266 13.8663 22.7002 13.9403 22.105C14.0143 21.5099 13.8957 20.9088 13.5976 20.3682H19.695C19.4547 20.8019 19.3304 21.2764 19.3312 21.757C19.3312 22.3979 19.5516 23.0244 19.9647 23.5573C20.3777 24.0901 20.9647 24.5055 21.6516 24.7507C22.3384 24.996 23.0942 25.0602 23.8233 24.9351C24.5525 24.8101 25.2222 24.5015 25.7479 24.0483C26.2736 23.5951 26.6316 23.0177 26.7766 22.3892C26.9217 21.7606 26.8472 21.1091 26.5627 20.5169C26.2782 19.9248 25.7965 19.4188 25.1783 19.0627C24.5602 18.7066 23.8335 18.5166 23.09 18.5166H10.0911C9.83964 18.5166 9.59613 18.4404 9.40305 18.3015C9.20998 18.1625 9.0796 17.9696 9.03465 17.7563L8.60909 15.7391H24.1814C24.936 15.739 25.6665 15.5106 26.2457 15.0938C26.8249 14.6769 27.2161 14.0981 27.3509 13.4581L28.9834 5.72047C29.011 5.58673 29.0042 5.44939 28.9633 5.31819C28.9225 5.18699 28.8487 5.06514 28.7471 4.96129ZM11.8135 21.757C11.8135 22.0317 11.719 22.3002 11.542 22.5285C11.365 22.7569 11.1134 22.9349 10.819 23.04C10.5247 23.1451 10.2008 23.1726 9.88829 23.1191C9.5758 23.0655 9.28876 22.9332 9.06347 22.739C8.83818 22.5448 8.68475 22.2973 8.62259 22.0279C8.56043 21.7585 8.59234 21.4793 8.71426 21.2255C8.83619 20.9718 9.04267 20.7549 9.30759 20.6023C9.5725 20.4497 9.88396 20.3682 10.2026 20.3682C10.6298 20.3682 11.0396 20.5146 11.3417 20.775C11.6438 21.0354 11.8135 21.3887 11.8135 21.757ZM24.701 21.757C24.701 22.0317 24.6065 22.3002 24.4295 22.5285C24.2525 22.7569 24.0009 22.9349 23.7065 23.04C23.4121 23.1451 23.0882 23.1726 22.7758 23.1191C22.4633 23.0655 22.1762 22.9332 21.9509 22.739C21.7256 22.5448 21.5722 22.2973 21.51 22.0279C21.4479 21.7585 21.4798 21.4793 21.6017 21.2255C21.7236 20.9718 21.9301 20.7549 22.195 20.6023C22.46 20.4497 22.7714 20.3682 23.09 20.3682C23.5173 20.3682 23.927 20.5146 24.2291 20.775C24.5312 21.0354 24.701 21.3887 24.701 21.757ZM25.2379 13.1271C25.1929 13.341 25.0619 13.5344 24.868 13.6735C24.6741 13.8125 24.4296 13.8882 24.1774 13.8874H8.21844L6.65718 6.48081H26.6354L25.2379 13.1271Z" fill="#FE0000"/>
</svg>
