<svg width="36" height="32" viewBox="0 0 36 32" fill="none" xmlns="http://www.w3.org/2000/svg">
<circle cx="31" cy="27" r="5" fill="#FE0000"/>
<circle cx="20" cy="28" r="2" fill="#FE0000"/>
<path d="M6.5 0C5.04182 0.00165422 3.64383 0.581654 2.61274 1.61276C1.58165 2.64386 1.00165 4.04186 1 5.50006C1 10.2064 6 13.7608 6.21313 13.9095C6.2972 13.9684 6.39735 14 6.5 14C6.60265 14 6.7028 13.9684 6.78687 13.9095C7 13.7608 12 10.2064 12 5.50006C11.9983 4.04186 11.4184 2.64386 10.3873 1.61276C9.35617 0.581654 7.95818 0.00165422 6.5 0ZM6.5 3.50004C6.89556 3.50004 7.28224 3.61733 7.61114 3.8371C7.94004 4.05686 8.19638 4.36922 8.34776 4.73468C8.49913 5.10014 8.53874 5.50227 8.46157 5.89024C8.3844 6.27821 8.19392 6.63457 7.91421 6.91428C7.63451 7.19399 7.27814 7.38447 6.89018 7.46165C6.50222 7.53882 6.10009 7.49921 5.73463 7.34783C5.36918 7.19646 5.05682 6.94011 4.83706 6.61121C4.6173 6.2823 4.5 5.89562 4.5 5.50006C4.5 4.96962 4.71071 4.4609 5.08579 4.08583C5.46086 3.71075 5.96957 3.50004 6.5 3.50004Z" fill="#FE0000"/>
<path d="M4.32422 20.9775L24.9442 20.9877C25.4924 20.9879 25.938 20.5468 25.9434 19.9987L25.9894 15.3094C25.9948 14.7591 25.5546 14.3073 25.0044 14.2985L10.973 14.0722" stroke="#FE0000" stroke-width="3" stroke-linecap="round"/>
<path d="M3.00054 27.8272L3.00067 29.3272L3.00054 27.8272ZM14.7591 19.4488C15.5876 19.4442 16.2629 20.112 16.2676 20.9404C16.2722 21.7688 15.6045 22.4442 14.776 22.4488L14.7591 19.4488ZM2.9971 21.0144L3.00555 22.5144L2.9971 21.0144ZM3.50273 22.0146L3.50046 26.8274L0.500459 26.8258L0.502734 22.013L3.50273 22.0146ZM3.00042 26.3272L14.7676 26.3269L14.7678 29.3269L3.00067 29.3272L3.00042 26.3272ZM14.776 22.4488L3.00555 22.5144L2.98865 19.5144L14.7591 19.4488L14.776 22.4488ZM3.50046 26.8274C3.50059 26.5512 3.27667 26.3272 3.00042 26.3272L3.00067 29.3272C1.61941 29.3272 0.499806 28.2071 0.500459 26.8258L3.50046 26.8274ZM0.502734 22.013C0.503384 20.6383 1.61392 19.5221 2.98865 19.5144L3.00555 22.5144C3.2805 22.5128 3.5026 22.2896 3.50273 22.0146L0.502734 22.013Z" fill="#FE0000"/>
</svg>
