<svg width="32" height="32" viewBox="0 0 32 32" fill="none" xmlns="http://www.w3.org/2000/svg">
<path d="M12.6317 8.35985L12.6317 8.35985C13.3822 8.3959 13.8801 7.59307 13.5141 6.93683L11.1668 2.7275C10.342 1.24852 8.31691 0.999152 7.15801 2.23387C5.99676 3.47108 6.37804 5.48093 7.91173 6.20689L12.2679 8.26888C12.382 8.32288 12.5057 8.35379 12.6317 8.35985Z" stroke="white" stroke-width="1.5"/>
<path d="M23.6326 13.0124L23.6326 13.0124C22.8843 12.9442 22.5025 12.0801 22.9558 11.4809L25.8635 7.63722C26.8851 6.28672 28.9253 6.32021 29.902 7.70353C30.8807 9.08965 30.2247 11.0273 28.6053 11.5339L24.0055 12.9727C23.885 13.0104 23.7583 13.0239 23.6326 13.0124Z" stroke="white" stroke-width="1.5"/>
<path d="M8.055 18.4482L8.055 18.4482C8.803 18.5195 9.18135 19.385 8.72563 19.9824L5.80253 23.8144C4.77548 25.1608 2.73548 25.119 1.76432 23.7318C0.791188 22.3418 1.45494 20.4068 3.07641 19.9067L7.68197 18.4864C7.80258 18.4492 7.92935 18.4362 8.055 18.4482Z" stroke="white" stroke-width="1.5"/>
<path d="M18.2831 24.7187L18.2831 24.7187C18.2537 23.9679 19.0609 23.4773 19.7139 23.8491L23.9021 26.2339C25.3737 27.0718 25.605 29.0991 24.3599 30.2469C23.1124 31.3971 21.1061 30.9979 20.3938 29.4578L18.3708 25.0833C18.3178 24.9688 18.288 24.8449 18.2831 24.7187Z" stroke="white" stroke-width="1.5"/>
<rect x="1.30957" y="11.25" width="12.5" height="3.32" rx="1.66" stroke="white" stroke-width="1.5"/>
<rect x="18.3096" y="17.25" width="12.5" height="3.382" rx="1.691" stroke="white" stroke-width="1.5"/>
<rect x="16.5166" y="13.0985" width="11.25" height="3.32" rx="1.66" transform="rotate(-90.7388 16.5166 13.0985)" stroke="white" stroke-width="1.5"/>
<rect x="11.6269" y="30.534" width="11.2514" height="3.31718" rx="1.65859" transform="rotate(-90.7388 11.6269 30.534)" stroke="white" stroke-width="1.5"/>
</svg>
