<svg width="32" height="32" viewBox="0 0 32 32" fill="none" xmlns="http://www.w3.org/2000/svg">
<path d="M12.1708 8.35985L12.1708 8.35985C12.9213 8.3959 13.4191 7.59307 13.0532 6.93683L10.7059 2.7275C9.88111 1.24852 7.85597 0.999152 6.69707 2.23387C5.53582 3.47108 5.91711 5.48093 7.45079 6.20689L11.807 8.26888C11.9211 8.32288 12.0447 8.35379 12.1708 8.35985Z" stroke="#FE0000" stroke-width="1.5"/>
<path d="M23.1717 13.0124L23.1717 13.0124C22.4234 12.9442 22.0416 12.0801 22.4949 11.4809L25.4025 7.63722C26.4242 6.28672 28.4643 6.32021 29.4411 7.70353C30.4198 9.08965 29.7638 11.0273 28.1444 11.5339L23.5446 12.9727C23.4241 13.0104 23.2974 13.0239 23.1717 13.0124Z" stroke="#FE0000" stroke-width="1.5"/>
<path d="M7.59406 18.4482L7.59407 18.4482C8.34206 18.5195 8.72042 19.385 8.2647 19.9824L5.34159 23.8144C4.31454 25.1608 2.27454 25.119 1.30338 23.7318C0.330251 22.3418 0.994001 20.4068 2.61547 19.9067L7.22103 18.4864C7.34164 18.4492 7.46842 18.4362 7.59406 18.4482Z" stroke="#FE0000" stroke-width="1.5"/>
<path d="M17.8221 24.7187L17.8221 24.7187C17.7928 23.9679 18.6 23.4773 19.253 23.8491L23.4412 26.2339C24.9127 27.0718 25.144 29.0991 23.899 30.2469C22.6515 31.3971 20.6451 30.9979 19.9329 29.4578L17.9098 25.0833C17.8569 24.9688 17.8271 24.8449 17.8221 24.7187Z" stroke="#FE0000" stroke-width="1.5"/>
<rect x="0.848633" y="11.25" width="12.5" height="3.32" rx="1.66" stroke="#FE0000" stroke-width="1.5"/>
<rect x="17.8486" y="17.25" width="12.5" height="3.382" rx="1.691" stroke="#FE0000" stroke-width="1.5"/>
<rect x="16.0556" y="13.0985" width="11.25" height="3.32" rx="1.66" transform="rotate(-90.7388 16.0556 13.0985)" stroke="#FE0000" stroke-width="1.5"/>
<rect x="11.166" y="30.534" width="11.2514" height="3.31718" rx="1.65859" transform="rotate(-90.7388 11.166 30.534)" stroke="#FE0000" stroke-width="1.5"/>
</svg>
