<svg width="141" height="65" viewBox="0 0 141 65" fill="none" xmlns="http://www.w3.org/2000/svg">
<path d="M30.7566 44.3447H27.6246L25.2486 23.8967L19.6686 42.5807C19.2606 43.9247 18.5406 44.5967 17.5086 44.5967C16.4526 44.5967 15.6606 43.7327 15.1326 42.0047L9.87658 23.7527L7.35658 44.3447H4.26058L6.81658 23.2127C7.05658 21.1487 8.00458 20.1167 9.66058 20.1167C11.2206 20.1167 12.2526 21.0287 12.7566 22.8527L17.5446 39.5567L22.4406 23.1047C22.7526 22.0247 23.1486 21.2567 23.6286 20.8007C24.1326 20.3447 24.8046 20.1167 25.6446 20.1167C26.5326 20.1167 27.1806 20.3567 27.5886 20.8367C28.0206 21.2927 28.2966 22.1087 28.4166 23.2847L30.7566 44.3447Z" fill="black"/>
<path d="M41.9655 35.337L45.5342 25.5525L53.8432 33.4405L41.9655 35.337Z" fill="#FE0000"/>
<path d="M43.5954 42.238C48.5048 42.238 53.0112 38.753 53.0112 33.8512C53.0112 28.9493 48.5048 25.4644 43.5954 25.4644C38.686 25.4644 34.1797 28.9493 34.1797 33.8512C34.1797 38.753 38.686 42.238 43.5954 42.238Z" stroke="#FE0000" stroke-width="4"/>
<path d="M53.0917 31.6292L48.081 30.3957L47.0869 26.0556" stroke="white" stroke-linecap="round" stroke-linejoin="round"/>
<path d="M51.2703 32.7739L45.9614 32.0128L45.5497 27.4641" stroke="white" stroke-linecap="round" stroke-linejoin="round"/>
<ellipse cx="83.1462" cy="27.9108" rx="2.47191" ry="2.23408" fill="black"/>
<path d="M60.0969 44.6553H57.2169V28.3113H60.0969V31.1913C61.2249 29.0313 63.0009 27.9513 65.4249 27.9513L66.5049 28.0233V30.7233H65.9289C63.9129 30.7233 62.4369 31.2513 61.5009 32.3073C60.5649 33.3633 60.0969 35.0193 60.0969 37.2753V44.6553ZM81.576 37.0953L83.592 38.2113C82.272 42.7233 79.452 44.9793 75.132 44.9793C72.78 44.9793 70.764 44.1633 69.084 42.5313C67.428 40.8753 66.6 38.8593 66.6 36.4833C66.6 34.0833 67.416 32.0673 69.048 30.4353C70.68 28.8033 72.708 27.9873 75.132 27.9873C78.348 27.9873 80.868 29.6073 82.692 32.8473L72.216 39.6873L70.992 37.5633L78.948 32.2353C78.036 31.1313 76.764 30.5793 75.132 30.5793C73.548 30.5793 72.228 31.1193 71.172 32.1993C70.116 33.2793 69.588 34.6473 69.588 36.3033C69.588 37.9593 70.164 39.3873 71.316 40.5873C72.468 41.7873 73.848 42.3873 75.456 42.3873C76.968 42.3873 78.252 41.9313 79.308 41.0193C80.364 40.1073 81.12 38.7993 81.576 37.0953Z" fill="black"/>
<path d="M88.4814 20.4094H91.3614V34.9894C91.3614 37.1734 91.8894 38.8774 92.9454 40.1014C94.0254 41.3014 95.4294 41.9014 97.1574 41.9014C98.6694 41.9014 99.9534 41.3494 101.009 40.2454C102.065 39.1414 102.593 37.8094 102.593 36.2494C102.593 34.6414 102.053 33.2974 100.973 32.2174C99.9174 31.1134 98.6094 30.5614 97.0494 30.5614C96.1854 30.5614 95.4294 30.7054 94.7814 30.9934C94.1574 31.2814 93.4134 31.8214 92.5494 32.6134V29.4814C94.0134 28.3054 95.5974 27.7174 97.3014 27.7174C99.5574 27.7174 101.501 28.5334 103.133 30.1654C104.765 31.7974 105.581 33.7654 105.581 36.0694C105.581 38.5174 104.753 40.5814 103.097 42.2614C101.465 43.9174 99.4374 44.7454 97.0134 44.7454C94.4934 44.7454 92.4414 43.8934 90.8574 42.1894C89.2734 40.4854 88.4814 38.2774 88.4814 35.5654V20.4094ZM119.085 28.0774H121.965V37.3654C121.965 39.5974 121.317 41.3854 120.021 42.7294C118.725 44.0734 117.009 44.7454 114.873 44.7454C112.761 44.7454 111.057 44.0734 109.761 42.7294C108.465 41.3854 107.817 39.5974 107.817 37.3654V28.0774H110.697V36.6814C110.697 38.3374 111.057 39.6214 111.777 40.5334C112.497 41.4454 113.517 41.9014 114.837 41.9014C115.581 41.9014 116.253 41.7334 116.853 41.3974C117.477 41.0614 118.005 40.5574 118.437 39.8854C118.869 39.1894 119.085 38.0374 119.085 36.4294V28.0774ZM136.236 28.0774H139.116V37.3654C139.116 41.5174 137.316 43.9414 133.716 44.6374V52.1254H130.836V44.6374C127.092 44.1574 125.22 41.7934 125.22 37.5454V28.0774H128.1V37.3654C128.1 38.8294 128.46 39.9694 129.18 40.7854C129.9 41.6014 130.908 42.0094 132.204 42.0094C133.5 42.0094 134.496 41.6014 135.192 40.7854C135.888 39.9454 136.236 38.7574 136.236 37.2214V28.0774Z" fill="black"/>
</svg>
